<svg width="29" height="28" viewBox="0 0 29 28" fill="none" xmlns="http://www.w3.org/2000/svg">
<g clip-path="url(#clip0_4_105)">
<path d="M29 28V16.3956H23.4549C23.4549 14.784 23.647 13.3261 24.0315 12.0219C24.416 10.718 24.9852 9.47251 25.7395 8.2858C26.4932 7.09882 27.5804 6.10977 29 5.31863V0C26.279 1.17216 24.0611 2.71051 22.3456 4.61533C20.6304 6.52016 19.3586 8.60808 18.5307 10.8791C17.7025 13.1501 17.2885 16.4544 17.2885 20.7914V28H29ZM11.7115 28V16.3956H6.1664C6.1664 14.784 6.35853 13.3261 6.74306 12.0219C7.12759 10.718 7.69671 9.47251 8.45099 8.2858C9.20471 7.09882 10.2919 6.10977 11.7115 5.31863V0C9.02011 1.17216 6.80942 2.71051 5.07946 4.61533C3.34894 6.52016 2.07015 8.60808 1.24226 10.8791C0.414086 13.1501 0 16.4544 0 20.7914V28H11.7115Z" fill="#F3FAF7"/>
</g>
<defs>
<clipPath id="clip0_4_105">
<rect width="29" height="28" fill="white"/>
</clipPath>
</defs>
</svg>
